<svg width="26" height="26" viewBox="0 0 26 26" fill="none" xmlns="http://www.w3.org/2000/svg">
<path d="M12.6812 6.51126C9.16532 6.51126 6.3294 9.3478 6.3294 12.8645C6.3294 16.3811 9.16532 19.2177 12.6812 19.2177C16.1971 19.2177 19.033 16.3811 19.033 12.8645C19.033 9.3478 16.1971 6.51126 12.6812 6.51126ZM12.6812 16.9949C10.4091 16.9949 8.5517 15.1425 8.5517 12.8645C8.5517 10.5864 10.4036 8.73405 12.6812 8.73405C14.9588 8.73405 16.8107 10.5864 16.8107 12.8645C16.8107 15.1425 14.9532 16.9949 12.6812 16.9949ZM20.7743 6.25138C20.7743 7.07525 20.111 7.73324 19.2928 7.73324C18.4691 7.73324 17.8113 7.06972 17.8113 6.25138C17.8113 5.43304 18.4746 4.76952 19.2928 4.76952C20.111 4.76952 20.7743 5.43304 20.7743 6.25138ZM24.9812 7.75536C24.8872 5.77033 24.4339 4.012 22.98 2.56331C21.5317 1.11463 19.7737 0.661224 17.7892 0.561696C15.7438 0.44558 9.61309 0.44558 7.5677 0.561696C5.58864 0.655695 3.8307 1.1091 2.37681 2.55778C0.922924 4.00647 0.475148 5.7648 0.375642 7.74983C0.259552 9.79568 0.259552 15.9277 0.375642 17.9736C0.469619 19.9586 0.922924 21.7169 2.37681 23.1656C3.8307 24.6143 5.58311 25.0677 7.5677 25.1672C9.61309 25.2833 15.7438 25.2833 17.7892 25.1672C19.7737 25.0732 21.5317 24.6198 22.98 23.1656C24.4284 21.7169 24.8817 19.9586 24.9812 17.9736C25.0973 15.9277 25.0973 9.80121 24.9812 7.75536ZM22.3388 20.1687C21.9076 21.2525 21.0728 22.0874 19.9838 22.5242C18.353 23.1711 14.4833 23.0218 12.6812 23.0218C10.879 23.0218 7.00383 23.1656 5.37857 22.5242C4.29506 22.0929 3.46032 21.258 3.0236 20.1687C2.37681 18.5375 2.52607 14.667 2.52607 12.8645C2.52607 11.0619 2.38234 7.18583 3.0236 5.56021C3.45479 4.47646 4.28953 3.64153 5.37857 3.20472C7.00936 2.55778 10.879 2.70708 12.6812 2.70708C14.4833 2.70708 18.3585 2.56331 19.9838 3.20472C21.0673 3.636 21.9021 4.47093 22.3388 5.56021C22.9856 7.19136 22.8363 11.0619 22.8363 12.8645C22.8363 14.667 22.9856 18.5431 22.3388 20.1687Z" fill="black"/>
</svg>
