<svg width="27" height="27" viewBox="0 0 27 27" fill="none" xmlns="http://www.w3.org/2000/svg">
<path d="M6.07026 26.9831H0.479603V8.9792H6.07026V26.9831ZM3.27192 6.5233C1.48421 6.5233 0.0341797 5.04253 0.0341797 3.25478C0.0341797 2.39606 0.375298 1.57251 0.982493 0.965302C1.58969 0.358094 2.41322 0.0169678 3.27192 0.0169678C4.13063 0.0169678 4.95416 0.358094 5.56135 0.965302C6.16855 1.57251 6.50967 2.39606 6.50967 3.25478C6.50967 5.04253 5.05903 6.5233 3.27192 6.5233ZM26.9943 26.9831H21.4157V18.2189C21.4157 16.1302 21.3735 13.4516 18.509 13.4516C15.6023 13.4516 15.1569 15.7209 15.1569 18.0684V26.9831H9.57225V8.9792H14.9342V11.4351H15.0124C15.7588 10.0205 17.582 8.52775 20.3021 8.52775C25.9602 8.52775 27.0003 12.2537 27.0003 17.0933V26.9831H26.9943Z" fill="black"/>
</svg>
