<svg width="28" height="23" viewBox="0 0 28 23" fill="none" xmlns="http://www.w3.org/2000/svg">
<path d="M24.8217 6.3812C24.8389 6.62033 24.8389 6.85951 24.8389 7.09864C24.8389 14.3925 19.278 22.7966 9.11428 22.7966C5.98303 22.7966 3.07426 21.8913 0.627441 20.3198C1.07233 20.371 1.50005 20.3881 1.96206 20.3881C4.54571 20.3881 6.92411 19.517 8.82339 18.0309C6.39369 17.9796 4.35753 16.391 3.65598 14.2046C3.99822 14.2558 4.34041 14.29 4.69977 14.29C5.19596 14.29 5.6922 14.2216 6.15415 14.1021C3.6218 13.5896 1.72247 11.369 1.72247 8.68722V8.61892C2.4582 9.02888 3.3138 9.2851 4.22059 9.31923C2.73197 8.32847 1.75671 6.63742 1.75671 4.72427C1.75671 3.69939 2.03042 2.7599 2.50955 1.93998C5.23014 5.28797 9.31958 7.47438 13.9052 7.71356C13.8196 7.3036 13.7683 6.8766 13.7683 6.44955C13.7683 3.40899 16.2322 0.93219 19.295 0.93219C20.8863 0.93219 22.3235 1.59837 23.3331 2.67451C24.5821 2.43538 25.7798 1.97415 26.8407 1.34215C26.43 2.6233 25.5574 3.69944 24.411 4.38266C25.5232 4.26314 26.6012 3.95561 27.5936 3.52861C26.8408 4.62179 25.8997 5.5954 24.8217 6.3812Z" fill="black"/>
</svg>
