<svg width="44" height="30" viewBox="0 0 44 30" fill="none" xmlns="http://www.w3.org/2000/svg">
<path d="M10.8697 0.580856C7.88576 0.580856 5.32674 1.6479 3.19265 3.78199C1.05856 5.91608 -0.00848389 8.4751 -0.00848389 11.459V29.5894H18.1218V11.459H3.61758C3.61758 9.45716 4.32579 7.748 5.74222 6.33156C7.15866 4.91513 8.86782 4.20692 10.8697 4.20692V0.580856ZM36.2521 0.580856C33.2682 0.580856 30.7092 1.6479 28.5751 3.78199C26.441 5.91608 25.374 8.4751 25.374 11.459V29.5894H43.5043V11.459H29C29 9.45716 29.7082 7.748 31.1247 6.33156C32.5411 4.91513 34.2503 4.20692 36.2521 4.20692V0.580856ZM3.61758 15.0851H14.4958V25.9633H3.61758V15.0851ZM29 15.0851H39.8782V25.9633H29V15.0851Z" fill="#3267FF"/>
</svg>
