<svg width="64" height="36" viewBox="0 0 64 36" fill="none" xmlns="http://www.w3.org/2000/svg">
<path d="M31.9868 0.125C27.2996 0.125 23.4837 3.97572 23.4837 8.68295C23.4837 11.6608 25.0129 14.2901 27.3219 15.8227C24.5331 16.7552 22.1199 18.498 20.3499 20.7781C19.3714 20.0254 18.278 19.4201 17.0992 18.9863C18.8867 17.6593 20.0548 15.5276 20.0548 13.1318C20.0548 9.13955 16.8259 5.87137 12.8578 5.87137C8.8897 5.87137 5.66085 9.13955 5.66085 13.1318C5.66085 15.529 6.82989 17.6616 8.61884 18.9886C3.88258 20.7364 0.5 25.3122 0.5 30.6974V34.4803C0.500485 34.7686 0.615837 35.0449 0.820366 35.248C1.02489 35.4515 1.30165 35.565 1.59003 35.564H18.1865C18.2268 35.5684 18.267 35.5708 18.3072 35.5703H45.6674C45.7076 35.5708 45.7483 35.5684 45.7881 35.564H62.3858C62.9825 35.5616 63.4657 35.0774 63.4672 34.4803V30.6974C63.4672 25.3122 60.0904 20.7364 55.3566 18.9881C57.1456 17.6616 58.3146 15.5285 58.3146 13.1313C58.3146 9.13906 55.0858 5.87087 51.1177 5.87087C47.1497 5.87087 43.9207 9.13906 43.9207 13.1313C43.9207 15.5271 45.0893 17.6592 46.8767 18.9858C45.6956 19.4205 44.6016 20.0278 43.6217 20.7824C41.8526 18.501 39.4428 16.7558 36.654 15.8227C38.9625 14.2901 40.4922 11.6608 40.4922 8.68295C40.4922 3.97572 36.6744 0.125 31.9871 0.125H31.9868ZM31.9868 2.29634C35.4925 2.29634 38.3186 5.14142 38.3186 8.68295C38.3186 12.1968 35.5366 15.0142 32.0697 15.0594C32.0421 15.0594 32.015 15.0555 31.9869 15.0555C31.9587 15.0555 31.9321 15.0594 31.904 15.0594C28.4371 15.0148 25.657 12.1969 25.657 8.68295C25.657 5.14093 28.4807 2.29634 31.9864 2.29634H31.9868ZM12.8579 8.04259C15.6395 8.04259 17.8835 10.3002 17.8835 13.1317C17.8835 15.9443 15.6685 18.1922 12.9131 18.2227C12.8947 18.2227 12.8768 18.2208 12.8579 18.2208C12.8395 18.2208 12.8215 18.2227 12.8026 18.2227C10.0473 18.1922 7.83224 15.9438 7.83224 13.1317C7.83224 10.3003 10.0763 8.04259 12.8578 8.04259H12.8579ZM51.117 8.04259C53.8986 8.04259 56.1426 10.3002 56.1426 13.1317C56.1426 15.9443 53.9276 18.1922 51.1722 18.2227C51.1538 18.2227 51.1359 18.2208 51.117 18.2208C51.0986 18.2208 51.0806 18.2227 51.0617 18.2227C48.3063 18.1922 46.0913 15.9438 46.0913 13.1317C46.0913 10.3003 48.3354 8.04259 51.1169 8.04259H51.117ZM31.9037 17.2306C31.9313 17.2311 31.9585 17.2345 31.9866 17.2345C32.0142 17.2345 32.0414 17.2306 32.0695 17.2306C39.0221 17.2752 44.5863 22.8873 44.5863 29.9125L44.5859 33.3983H19.3883V29.9125C19.3883 22.8866 24.951 17.2753 31.9027 17.2306H31.9037ZM12.7748 20.3965C12.8024 20.397 12.8296 20.4004 12.8577 20.4004C12.8858 20.4004 12.9124 20.3965 12.9406 20.3965C15.2922 20.4154 17.4383 21.2263 19.1472 22.5829C17.9244 24.7466 17.2172 27.244 17.2172 29.9131V33.3906H2.67047V30.6973C2.67047 24.9878 7.15957 20.4411 12.7745 20.396L12.7748 20.3965ZM51.0339 20.3965C51.062 20.397 51.0886 20.4004 51.1168 20.4004C51.1449 20.4004 51.1715 20.3965 51.1996 20.3965C56.8146 20.4411 61.3037 24.9884 61.3037 30.6978V33.3906H46.7495L46.749 29.9131C46.749 27.2455 46.0438 24.7499 44.8233 22.5867C46.5327 21.2282 48.6804 20.4154 51.034 20.3965H51.0339Z" fill="#103E13"/>
</svg>
