<svg width="30" height="31" viewBox="0 0 30 31" fill="none" xmlns="http://www.w3.org/2000/svg">
<path d="M25.5321 4.63029C22.8055 1.82891 19.1744 0.288147 15.3156 0.288147C7.35073 0.288147 0.869488 6.93142 0.869488 15.0954C0.869488 17.7034 1.53323 20.2513 2.79564 22.4991L0.74585 30.1695L8.40491 28.1085C10.5133 29.2891 12.8884 29.9094 15.3091 29.9094H15.3156C23.274 29.9094 29.8984 23.2661 29.8984 15.1021C29.8984 11.1468 28.2586 7.43167 25.5321 4.63029ZM15.3156 27.4149C13.1552 27.4149 11.0404 26.8212 9.1988 25.7007L8.76281 25.4339L4.22073 26.6545L5.43109 22.1122L5.14477 21.6453C3.94092 19.6844 3.30972 17.4233 3.30972 15.0954C3.30972 8.3121 8.69774 2.78938 15.3221 2.78938C18.5302 2.78938 21.5431 4.07001 23.8076 6.39783C26.0722 8.72564 27.4647 11.8138 27.4582 15.1021C27.4582 21.8921 21.9335 27.4149 15.3156 27.4149ZM21.901 18.197C21.5431 18.0102 19.7666 17.1164 19.4347 16.9964C19.1029 16.8697 18.8621 16.8096 18.6213 17.1831C18.3806 17.5567 17.6908 18.3837 17.476 18.6372C17.2678 18.884 17.0531 18.9173 16.6952 18.7306C14.5738 17.6434 13.1813 16.7896 11.7822 14.3284C11.4113 13.6747 12.1531 13.7214 12.8429 12.3074C12.96 12.0606 12.9014 11.8472 12.8103 11.6604C12.7192 11.4737 11.9969 9.65277 11.6976 8.9124C11.4048 8.19204 11.1054 8.29209 10.8842 8.27875C10.6759 8.26541 10.4352 8.26541 10.1944 8.26541C9.95364 8.26541 9.5632 8.35879 9.23133 8.72564C8.89946 9.09916 7.96892 9.99293 7.96892 11.8138C7.96892 13.6347 9.26387 15.3956 9.43957 15.6424C9.62177 15.8892 11.9839 19.6243 15.6085 21.2318C17.899 22.2456 18.797 22.3324 19.9423 22.1589C20.6386 22.0522 22.0767 21.2652 22.376 20.3981C22.6754 19.531 22.6754 18.7906 22.5843 18.6372C22.4997 18.4704 22.2589 18.3771 21.901 18.197Z" fill="#000A3A"/>
</svg>
