<svg width="31" height="22" viewBox="0 0 31 22" fill="none" xmlns="http://www.w3.org/2000/svg">
<path d="M30.2062 3.85399C29.8626 2.59716 28.85 1.60732 27.5644 1.27141C25.2341 0.661011 15.8899 0.661011 15.8899 0.661011C15.8899 0.661011 6.54579 0.661011 4.21545 1.27141C2.92983 1.60738 1.91728 2.59716 1.57362 3.85399C0.949219 6.13206 0.949219 10.885 0.949219 10.885C0.949219 10.885 0.949219 15.638 1.57362 17.9161C1.91728 19.1729 2.92983 20.1215 4.21545 20.4574C6.54579 21.0678 15.8899 21.0678 15.8899 21.0678C15.8899 21.0678 25.234 21.0678 27.5644 20.4574C28.85 20.1215 29.8626 19.1729 30.2062 17.9161C30.8306 15.638 30.8306 10.885 30.8306 10.885C30.8306 10.885 30.8306 6.13206 30.2062 3.85399ZM12.8338 15.2004V6.56969L20.6437 10.8851L12.8338 15.2004Z" fill="#000A3A"/>
</svg>
